<svg id="Capa_1" data-name="Capa 1" xmlns="http://www.w3.org/2000/svg" viewBox="0 0 2095.32 162.29"><g id="Layer_1" data-name="Layer 1"><path d="M49.1,40.1H24v88.5c0,11.3-3.8,15.7-9.4,15.7a55.19,55.19,0,0,1-12.2-1.7L0,159.9a71.09,71.09,0,0,0,19.2,2.4c20.8,0,30-12.4,30-32.8ZM24,26.5H49.3V5.1H24Z" transform="translate(0 -0.02)" style="fill:#4254f4"/><path d="M82.6,70.2a31.53,31.53,0,0,1-.3-4c0-7.3,5.1-10.6,15.5-10.6S113,60.8,113,68.3v6.8c-42.8.9-57.1,11.3-57.1,29.3,0,15.5,11,23,27.8,23,18.5,0,29-10.1,31.9-13.6h1c.3,6.5,3.1,13.6,15.9,13.6a46.92,46.92,0,0,0,14.3-2.3l-1-16.8a13.42,13.42,0,0,1-4.4.7c-2.4,0-3.8-1.4-3.8-4.9V69.4c0-16.1-8.2-31.1-38.6-31.1-27.1,0-39.4,10.5-39.4,26.9a44.34,44.34,0,0,0,.5,6.3Zm-2.4,31c0-7.3,7.2-12.6,32.8-13.1v12.6a29.11,29.11,0,0,1-21.1,9.4C84.42,110.1,80.2,107.5,80.2,101.2Z" transform="translate(0 -0.02)" style="fill:#4254f4"/><path d="M146.5,83.1c0,28.1,15,44.3,45,44.3,35.8,0,39.4-21.3,39.4-29.8a26.05,26.05,0,0,0-.3-4.5l-25-.3a10.15,10.15,0,0,1,.3,2.8c0,5.2-2.8,14-15.2,14S172,100.3,172,83.2c0-20.1,7-26.7,18.7-26.7,12.4,0,15.2,8.9,15.2,14a10.81,10.81,0,0,1-.3,3l25-.5a26.05,26.05,0,0,0,.3-4.5c0-9.3-3.7-29.8-39.4-29.8C160.1,38.4,146.5,58.8,146.5,83.1Z" transform="translate(0 -0.02)" style="fill:#4254f4"/><path d="M238.3,125.7h25.12V99.3c3.1-1.9,10.1-6.6,13.4-9.3,3.8,4.2,19.7,32.5,23.4,35.6h27.1v-3c-4.7-3.8-27.2-40.8-31.8-46.3,8.4-7.2,21.1-19.9,30-33.3V40h-27.4c-8.4,13.4-22.7,26.9-34.7,35.1V0h-25.1Z" transform="translate(0 -0.02)" style="fill:#4254f4"/><path d="M331,125.7h18.9l3.7-9.4h1c4,4.4,11.5,11.2,26.7,11.2,19.2,0,36.5-12.6,36.5-44.7,0-32.5-17.8-44.3-36.5-44.3-11.9,0-19.9,4.9-24.1,9.8h-1V0H331.1Zm25.1-61.8A21.91,21.91,0,0,1,372,56.4c11.2,0,20.1,5.8,20.1,26.4,0,20.4-8.4,26.7-20.1,26.7a20.12,20.12,0,0,1-15.9-7.3Z" transform="translate(0 -0.02)" style="fill:#4254f4"/><path d="M420.42,83.1c0,26.9,14.7,44.3,45,44.3,30,0,45-17.5,45-44.3,0-27.1-15-44.7-45-44.7C435,38.4,420.42,56,420.42,83.1Zm45,26.3c-12,0-19.5-6.8-19.5-26.4,0-19.9,7.5-26.7,19.5-26.7,11.7,0,19.4,6.8,19.4,26.7C484.8,102.6,477.1,109.4,465.42,109.4Z" transform="translate(0 -0.02)" style="fill:#4254f4"/><path d="M507.6,125.7h26.82l11.5-17.3c3.1-4.9,5.2-8.2,7.9-13.4H555a125.47,125.47,0,0,0,7.7,13.1l11.9,17.6h26.7v-2.4L570.6,81.9l30.2-39.1V40.1H574.1L563.5,55.6a127,127,0,0,0-8.4,13.8h-1.2a102.08,102.08,0,0,0-8.2-14L535.1,40.1H508.4v2.6l29.8,39.8-30.5,40.7Z" transform="translate(0 -0.02)" style="fill:#4254f4"/><rect x="605.2" y="98.78" width="29" height="26.9" style="fill:#4254f4"/><path d="M1335.62,56.72c4.6-9,12.6-16,25.7-16,13.6,0,20.7,6.6,23.3,16.7h1c4.6-8.5,12.1-16.7,25-16.7,15.6,0,24.8,8.2,24.8,23.8a58.05,58.05,0,0,1-1,9.2l-5.1,28.2c-.5,2.9-1.4,8,3.2,8a14.46,14.46,0,0,0,6.3-1.7l-2.4,16.7a66.27,66.27,0,0,1-16,2.6c-11.4,0-16.5-5.6-16.5-14.5a37,37,0,0,1,.7-6.8l5.6-32.5a46.49,46.49,0,0,0,.5-5.9c0-6-2.7-9.5-9.2-9.5-7.3,0-15.5,6.8-18.9,26.9l-7,40.6h-24.3l9.2-52a48.7,48.7,0,0,0,.7-5.9c0-6-2.5-9.5-9-9.5-7.3,0-15.6,6.8-19.2,26.9l-7.1,40.6h-24.5l10.5-60c.5-3.2.8-7.5-3.7-7.5a12.36,12.36,0,0,0-5.8,1.5l1.9-16.7a53.92,53.92,0,0,1,15.5-2.4c10.7,0,15.1,5.9,15.1,12.2,0,1-.2,2.5-.3,3.7Z" transform="translate(0 -0.02)" style="fill:#fff"/><path d="M1489.12,40.72c25.2,0,37.2,13.8,37.2,33.7,0,30.8-15.8,53-46.2,53-25.3,0-37.1-13.6-37.1-33.3C1443,63.32,1458.32,40.72,1489.12,40.72Zm12.2,33.7c0-11-4.8-16.1-12.6-16.1-13.6,0-20.9,12.4-20.9,35.7,0,11,4.8,16,12.4,16C1493.52,109.92,1501.32,97.82,1501.32,74.42Z" transform="translate(0 -0.02)" style="fill:#fff"/><path d="M1581.42,116c-4.4,4.2-12.4,11.4-26,11.4-13.3,0-25.7-9.5-25.7-33.5,0-38.2,22.1-53.2,39.9-53.2,11,0,17.5,4.8,20.6,9.5h.8l8.5-46.9H1624l-17.7,98.6c-.5,2.7-1.7,8,2.9,8a16.53,16.53,0,0,0,6.3-1.5l-2.4,16.5a63.83,63.83,0,0,1-16,2.6c-10,0-14.1-4.1-15-11.4l-.7-.1Zm7-50.3c-2.4-4.2-6.8-7.5-11.9-7.5-10.7,0-21.6,9.7-21.6,33.8,0,13.3,5.9,17.8,12.7,17.8,5.8,0,11-3.2,14.3-7.1Z" transform="translate(0 -0.02)" style="fill:#fff"/><path d="M1667.92,40.72c21.4,0,34.2,11.4,34.2,27a55.45,55.45,0,0,1-3.9,19.2h-52.5a33.08,33.08,0,0,0-.8,8c0,10.5,4.4,15.5,12.8,15.5,8.7,0,16.3-3.9,16.3-13.4l22.4.3c0,20.6-18,30.1-39.3,30.1-24.6,0-36.2-12.6-36.2-32.3C1620.82,65.42,1635.12,40.72,1667.92,40.72Zm10.7,32.3a14.37,14.37,0,0,0,1-5.8c0-7.6-5.4-10.5-12.2-10.5-9.2,0-16.3,4.6-19.4,16.3Z" transform="translate(0 -0.02)" style="fill:#fff"/><path d="M1738.12,81l-8.2,44.7h-24.4l10.5-60c.5-3.1.8-7.5-3.7-7.5a12.36,12.36,0,0,0-5.8,1.5l1.9-16.7a53.92,53.92,0,0,1,15.5-2.4c10.7,0,14.6,5.9,14.6,11.9a17.69,17.69,0,0,1-.5,4.1h1c4.2-8.2,11-16,23.3-16,12.9,0,18.7,8.7,18.7,18.7a37.37,37.37,0,0,1-4.6,18.5l-20.6-1.2c1.4-4.1,2.4-7.3,2.4-10.7,0-4.2-1.9-7.5-5.6-7.5C1747,58.62,1740.72,66,1738.12,81Z" transform="translate(0 -0.02)" style="fill:#fff"/><path d="M1777.92,93.92c0-31.4,18.4-53.2,39.8-53.2,13.8,0,19.5,6.5,23,11.7h1l5.1-10h18.4l-10.5,59.5c-.5,2.5-1.7,8.2,2.9,8.2a15.73,15.73,0,0,0,6.3-1.7l-2.4,16.5a63.83,63.83,0,0,1-16,2.6c-10,0-14.1-4.1-15-11.4h-.8c-4.4,4.2-12.4,11.4-24.8,11.4C1790.72,127.42,1777.92,117.92,1777.92,93.92Zm58.7-28.2a12.22,12.22,0,0,0-11.4-7.5c-10.5,0-21.2,12.6-21.2,35,0,12.4,5.6,16.7,12.2,16.7,6,0,10.7-3.2,13.9-7.1Z" transform="translate(0 -0.02)" style="fill:#fff"/><path d="M1884.52,57.52h-13.6l2.7-15.1h16.3l8.5-18.9h16.3l-3.2,18.9h25L1934,57.52h-25l-7,39.8c-1.2,6.5-.3,11,7.1,11,4.4,0,9.7-1.7,16-4.8l-2.4,19.5a63.52,63.52,0,0,1-22.4,4.2c-15.5,0-24-8.3-24-19.5a37.35,37.35,0,0,1,.9-8.3Z" transform="translate(0 -0.02)" style="fill:#fff"/><path d="M1978.22,40.72c25.2,0,37.2,13.8,37.2,33.7,0,30.8-15.8,53-46.2,53-25.3,0-37.1-13.6-37.1-33.3C1932.12,63.32,1947.42,40.72,1978.22,40.72Zm12.2,33.7c0-11-4.8-16.1-12.6-16.1-13.6,0-20.9,12.4-20.9,35.7,0,11,4.8,16,12.4,16C1982.62,109.92,1990.42,97.82,1990.42,74.42Z" transform="translate(0 -0.02)" style="fill:#fff"/><path d="M2052.52,81l-8.2,44.7h-24.5l10.5-60c.5-3.1.8-7.5-3.7-7.5a12.36,12.36,0,0,0-5.8,1.5l1.9-16.7a53.92,53.92,0,0,1,15.5-2.4c10.7,0,14.6,5.9,14.6,11.9a17.69,17.69,0,0,1-.5,4.1h1c4.2-8.2,11-16,23.3-16,12.9,0,18.7,8.7,18.7,18.7a37.37,37.37,0,0,1-4.6,18.5l-20.6-1.2c1.4-4.1,2.4-7.3,2.4-10.7,0-4.2-1.9-7.5-5.6-7.5C2061.32,58.62,2055,66,2052.52,81Z" transform="translate(0 -0.02)" style="fill:#fff"/></g><path d="M665.65,97.15a17.62,17.62,0,0,0-.17,2.72c0,4.42,2.55,10.2,17.17,10.2,9.52,0,14.28-3.23,14.28-8.16,0-5.1-5.27-6.8-12.07-8.33l-12.07-2.72c-19.38-4.42-27.88-11-27.88-25.5,0-15,12.92-25.16,37.74-25.16,31.11,0,36.21,15,36.38,24.31a19.41,19.41,0,0,1-.34,4.25l-21.25.34a17.62,17.62,0,0,0,.17-2.72c0-3.91-2.89-9.18-15.64-9.18C672.45,57.2,668,60.09,668,65c0,6.46,6.46,7.48,13.26,8.84l13.09,2.72c19.89,4.08,26.52,11.9,26.52,25,0,13.77-12.07,25.33-38.25,25.33-33.49,0-39.27-16.32-39.27-26a17.13,17.13,0,0,1,.34-3.23Z" transform="translate(0 -0.02)" style="fill:#4254f4"/><path d="M728.38,72.5a37.17,37.17,0,0,1-.51-6.12c0-16,12.07-26.18,38.42-26.18,29.58,0,37.57,14.62,37.57,30.26v33.83c0,3.4,1.36,4.76,3.74,4.76a12.35,12.35,0,0,0,4.25-.68l1,16.32a48.89,48.89,0,0,1-13.94,2.21c-12.41,0-15.13-7-15.47-13.26h-1c-2.89,3.4-13.09,13.26-31.11,13.26-16.32,0-27-7.31-27-22.44,0-17.51,13.94-27.71,55.59-28.56V69.27c0-7.31-4.59-12.41-14.79-12.41S750,60.09,750,67.23a36.56,36.56,0,0,0,.34,3.91Zm30.94,37.57a28.37,28.37,0,0,0,20.57-9.18V88.65c-25,.51-32,5.61-32,12.75C747.93,107.52,752,110.07,759.32,110.07Z" transform="translate(0 -0.02)" style="fill:#4254f4"/><path d="M817.8,72.5a37.17,37.17,0,0,1-.51-6.12c0-16,12.07-26.18,38.42-26.18,29.58,0,37.57,14.62,37.57,30.26v33.83c0,3.4,1.36,4.76,3.74,4.76a12.35,12.35,0,0,0,4.25-.68l1,16.32a48.89,48.89,0,0,1-13.94,2.21c-12.41,0-15.13-7-15.47-13.26h-1C869,117,858.77,126.9,840.75,126.9c-16.32,0-27-7.31-27-22.44,0-17.51,13.94-27.71,55.59-28.56V69.27c0-7.31-4.59-12.41-14.79-12.41s-15.13,3.23-15.13,10.37a36.56,36.56,0,0,0,.34,3.91Zm30.94,37.57a28.37,28.37,0,0,0,20.57-9.18V88.65c-25,.51-32,5.61-32,12.75C837.35,107.52,841.43,110.07,848.74,110.07Z" transform="translate(0 -0.02)" style="fill:#4254f4"/><path d="M933.4,125.2H908.75V41.9h18l3.06,11.56H931c3.91-6,10.2-13.26,23.12-13.26,17,0,22.44,12.24,22.44,25.84a54.33,54.33,0,0,1-1.53,11.39L954,76.24a36.88,36.88,0,0,0,.68-7c0-7.31-3.4-11.22-8.67-11.22-6.46,0-10.88,5.61-12.58,10.37Z" transform="translate(0 -0.02)" style="fill:#4254f4"/><path d="M983.71,2.8h24.65V125.2H983.71Z" transform="translate(0 -0.02)" style="fill:#4254f4"/><path d="M1021.45,72.5a37.17,37.17,0,0,1-.51-6.12c0-16,12.07-26.18,38.42-26.18,29.58,0,37.57,14.62,37.57,30.26v33.83c0,3.4,1.36,4.76,3.74,4.76a12.35,12.35,0,0,0,4.25-.68l1,16.32A48.89,48.89,0,0,1,1092,126.9c-12.41,0-15.13-7-15.47-13.26h-1c-2.89,3.4-13.09,13.26-31.11,13.26-16.32,0-27-7.31-27-22.44,0-17.51,13.94-27.71,55.59-28.56V69.27c0-7.31-4.59-12.41-14.79-12.41S1043,60.09,1043,67.23a36.56,36.56,0,0,0,.34,3.91Zm30.94,37.57a28.37,28.37,0,0,0,20.57-9.18V88.65c-25,.51-32,5.61-32,12.75C1041,107.52,1045.08,110.07,1052.39,110.07Z" transform="translate(0 -0.02)" style="fill:#4254f4"/><path d="M1112.4,41.9h18l3.06,12.24h1.19a30.35,30.35,0,0,1,26.18-13.94c18.36,0,30.94,9.35,30.94,33.49V125.2h-24.48V75.73c0-13.94-5.1-18-13.94-18-7.31,0-12.92,4.08-16.49,9.18V125.2H1112.4Z" transform="translate(0 -0.02)" style="fill:#4254f4"/><path d="M1285,125.2h-18.53L1263,116h-1c-3.91,4.25-11.39,10.88-26,10.88-18.7,0-35.53-12.24-35.53-43.52,0-31.62,17.34-43.18,35.53-43.18,11.56,0,19.38,4.76,23.46,9.52h1V2.8H1285ZM1260.47,65a22,22,0,0,0-15.64-7.31c-10.71,0-19.38,5.61-19.38,25.67,0,19.89,8.16,26,19.38,26a19.61,19.61,0,0,0,15.64-7.14Z" transform="translate(0 -0.02)" style="fill:#4254f4"/></svg>