<svg id="Ebene_1" data-name="Ebene 1" xmlns="http://www.w3.org/2000/svg" viewBox="0 0 617.21 82.77"><path d="M24.44,78.06c0,9.34-3.48,16.11-13.27,16.11a26.44,26.44,0,0,1-8.45-1.43l1.07-6.32a20.32,20.32,0,0,0,6.67,1.25c3.12,0,5.61-2.76,5.61-9.53V31.86h8.37ZM16.07,14.6h8.37v9.25H16.07Z" transform="translate(-2.72 -11.39)"/><path d="M32.45,47.62a21,21,0,0,1-.27-3.21C32.18,36.22,37.79,31,49.8,31c13.89,0,17.45,7.39,17.45,15.22V67.55c0,1.43.71,2,2,2a7.41,7.41,0,0,0,2.41-.44L72,75.39a16.6,16.6,0,0,1-5.51,1c-5.26,0-6.5-3.21-6.68-6.77h-.53a21.86,21.86,0,0,1-15.31,6.77c-7.75,0-13.35-3.65-13.35-12,0-8.55,7.83-14,28.48-14.06V45.12c0-4.27-2.94-7.83-9.44-7.83-6.23,0-9.43,2-9.43,6.77,0,.62.09,1.69.18,2.67ZM45.88,70a18,18,0,0,0,13.18-6.14V55.63c-15.49.09-20.12,3.47-20.12,8.1C38.94,67.82,41.52,70,45.88,70Z" transform="translate(-2.72 -11.39)"/><path d="M94.92,31c15.94,0,17.89,10.24,17.89,14.51a13.08,13.08,0,0,1-.09,1.69l-8.27.36a13.16,13.16,0,0,0,.09-1.69c0-3.12-1.7-8.37-9.62-8.37C87.18,37.47,83,41.74,83,53.76c0,10.14,3.74,16.11,11.92,16.11,7.92,0,9.62-5.16,9.62-8.37a12,12,0,0,0-.09-1.6l8.27.27a11.87,11.87,0,0,1,.09,1.6c0,3.91-2,14.6-17.89,14.6-13.61,0-20.47-8.28-20.47-22.61C74.45,41.39,80.68,31,94.92,31Z" transform="translate(-2.72 -11.39)"/><path d="M119.31,11.39h8.36V51.18c6.86-5,15.76-12.91,21-19.32h9.43v1.07a148.94,148.94,0,0,1-16.2,16c2.05,2.4,14.69,23.68,17.18,25.46v1.06h-9.43C147.79,74.05,138,55.72,136,53.58c-2,1.69-6.41,5.07-8.28,6.23V75.47h-8.36Z" transform="translate(-2.72 -11.39)"/><path d="M163.18,11.39h8.37v24.3h.36c2.31-2.31,6.31-4.72,12.55-4.72,10.14,0,17.88,7,17.88,22.61,0,15.31-7.47,22.79-17.88,22.79-7.39,0-11-3.12-13.09-5.17h-.53l-1.34,4.27h-6.32Zm8.37,54a12.91,12.91,0,0,0,10,4.45c7.56,0,12.28-4,12.28-16.38s-5.16-16-12.28-16a14.36,14.36,0,0,0-10,4.45Z" transform="translate(-2.72 -11.39)"/><path d="M227.35,31c13.62,0,20.83,8.73,20.83,22.79S241,76.37,227.35,76.37c-13.79,0-20.83-8.64-20.83-22.61S213.56,31,227.35,31Zm12.28,22.79c0-11.93-4.62-16.29-12.28-16.29-7.83,0-12.37,4.36-12.37,16.29,0,11.75,4.54,16.11,12.37,16.11C235,69.87,239.63,65.51,239.63,53.76Z" transform="translate(-2.72 -11.39)"/><path d="M249.42,74.5l15.85-21L249.69,32.93V31.86h9.08l6.5,9.08A48.85,48.85,0,0,1,270,48.51h.54a63.52,63.52,0,0,1,5-7.48l6.41-9.17H291v1.07l-15.67,20.2L291.17,74.5v1h-9l-7.12-10.23c-2.14-3.12-3-4.63-4.54-7.12H270a53.77,53.77,0,0,1-4.54,7.3l-7,10h-9Z" transform="translate(-2.72 -11.39)"/><path d="M295.17,64.79h10.77V75.47H295.17Z" transform="translate(-2.72 -11.39)"/><path d="M319.55,60.25a15.58,15.58,0,0,0-.08,1.79c0,3.64,1.33,7.92,10.68,7.92,6.23,0,9.34-2.67,9.34-6.23,0-3.74-3.47-5-7.39-6l-6.31-1.51c-8.46-2-13.27-5.43-13.27-12.73,0-7,5.79-12.55,17.45-12.55,14.42,0,16.91,7.92,16.91,12.91a10.8,10.8,0,0,1-.18,2.31l-7.48.18a13.64,13.64,0,0,0,.09-1.78c0-3.38-1.69-7.12-9.7-7.12-6.32,0-9.08,2.85-9.08,6.05,0,4.19,3.83,5.34,7.93,6.23l6.4,1.43c8.9,2,12.82,5.52,12.82,12.55,0,6.49-5.7,12.64-17.71,12.64-15.76,0-18.43-8.73-18.43-14a9.14,9.14,0,0,1,.18-1.78Z" transform="translate(-2.72 -11.39)"/><path d="M353.11,47.62a21,21,0,0,1-.27-3.21c0-8.19,5.61-13.44,17.62-13.44,13.89,0,17.45,7.39,17.45,15.22V67.55a1.71,1.71,0,0,0,2,2,7.35,7.35,0,0,0,2.4-.44l.35,6.32a16.6,16.6,0,0,1-5.51,1c-5.26,0-6.5-3.21-6.68-6.77h-.53a21.86,21.86,0,0,1-15.31,6.77c-7.75,0-13.35-3.65-13.35-12,0-8.55,7.83-14,28.48-14.06V45.12c0-4.27-2.94-7.83-9.44-7.83-6.23,0-9.43,2-9.43,6.77,0,.62.09,1.69.18,2.67ZM366.55,70a18,18,0,0,0,13.17-6.14V55.63c-15.49.09-20.12,3.47-20.12,8.1C359.6,67.82,362.18,70,366.55,70Z" transform="translate(-2.72 -11.39)"/><path d="M396.63,47.62a21,21,0,0,1-.27-3.21C396.36,36.22,402,31,414,31c13.89,0,17.45,7.39,17.45,15.22V67.55c0,1.43.71,2,1.95,2a7.36,7.36,0,0,0,2.41-.44l.35,6.32a16.6,16.6,0,0,1-5.51,1c-5.26,0-6.5-3.21-6.68-6.77h-.53a21.86,21.86,0,0,1-15.31,6.77c-7.75,0-13.35-3.65-13.35-12,0-8.55,7.83-14,28.48-14.06V45.12c0-4.27-2.94-7.83-9.44-7.83-6.23,0-9.43,2-9.43,6.77,0,.62.09,1.69.18,2.67ZM410.07,70a18,18,0,0,0,13.17-6.14V55.63c-15.49.09-20.12,3.47-20.12,8.1C403.12,67.82,405.7,70,410.07,70Z" transform="translate(-2.72 -11.39)"/><path d="M449.49,75.47h-8.37V31.86h6.06l1.15,5.79h.54c2-3,4.72-6.68,11.3-6.68,7,0,10.77,5.17,10.77,12.82A21.26,21.26,0,0,1,470.5,48l-7.66-.44a23.31,23.31,0,0,0,.27-3.38c0-4.37-2-6.59-5.16-6.59-4.45,0-7.3,3.92-8.46,6.94Z" transform="translate(-2.72 -11.39)"/><path d="M476.19,11.39h8.37V75.47h-8.37Z" transform="translate(-2.72 -11.39)"/><path d="M493.1,47.62a21,21,0,0,1-.27-3.21c0-8.19,5.61-13.44,17.63-13.44,13.88,0,17.44,7.39,17.44,15.22V67.55a1.71,1.71,0,0,0,2,2,7.35,7.35,0,0,0,2.4-.44l.36,6.32a16.66,16.66,0,0,1-5.52,1c-5.25,0-6.5-3.21-6.67-6.77h-.54a21.84,21.84,0,0,1-15.31,6.77c-7.74,0-13.35-3.65-13.35-12,0-8.55,7.83-14,28.48-14.06V45.12c0-4.27-2.93-7.83-9.43-7.83-6.23,0-9.44,2-9.44,6.77,0,.62.09,1.69.18,2.67ZM506.54,70a18,18,0,0,0,13.17-6.14V55.63c-15.48.09-20.11,3.47-20.11,8.1C499.6,67.82,502.18,70,506.54,70Z" transform="translate(-2.72 -11.39)"/><path d="M537.6,31.86h6l1.25,6.06h.53a16.47,16.47,0,0,1,13.8-7c9.25,0,15.31,4.9,15.31,17.36V75.47h-8.37V49.13c0-9.43-3.74-11.66-9.26-11.66A13.3,13.3,0,0,0,546,43.61V75.47H537.6Z" transform="translate(-2.72 -11.39)"/><path d="M619.93,75.47h-6.32l-1.34-4.27h-.53c-2,2-5.7,5.17-13.09,5.17-10.32,0-17.89-7.48-17.89-22.79C580.76,38,588.6,31,598.65,31c6.23,0,10.33,2.41,12.55,4.72h.45V11.39h8.28Zm-8.28-33.55a14.74,14.74,0,0,0-10.06-4.45c-7.12,0-12.28,3.65-12.28,16S594,69.87,601.59,69.87a13,13,0,0,0,10.06-4.45Z" transform="translate(-2.72 -11.39)"/></svg>