<svg id="Ebene_1" data-name="Ebene 1" xmlns="http://www.w3.org/2000/svg" viewBox="0 0 788.56 95.79"><path d="M30,77.27c0,12-5.46,19.36-17.71,19.36A41.71,41.71,0,0,1,.93,95.19L2.37,85a30.1,30.1,0,0,0,7.21,1c3.29,0,5.56-2.57,5.56-9.27V24.53H30ZM15.14,3.83H30.07V16.5H15.14Z" transform="translate(-0.93 -0.84)" style="fill:#fff"/><path d="M38.42,43.07a22,22,0,0,1-.31-3.71c0-9.68,7.31-15.86,23.27-15.86,17.93,0,22.77,8.86,22.77,18.33v20.5c0,2.06.82,2.88,2.26,2.88A7.49,7.49,0,0,0,89,64.8l.62,9.89A29.69,29.69,0,0,1,81.16,76c-7.52,0-9.17-4.22-9.37-8h-.62c-1.75,2.06-7.93,8-18.85,8-9.89,0-16.38-4.43-16.38-13.6,0-10.6,8.45-16.78,33.68-17.3v-4c0-4.42-2.78-7.51-9-7.51s-9.16,1.95-9.16,6.28a22.91,22.91,0,0,0,.2,2.37ZM57.16,65.83a17.16,17.16,0,0,0,12.46-5.56V52.86c-15.14.3-19.36,3.39-19.36,7.72C50.26,64.29,52.73,65.83,57.16,65.83Z" transform="translate(-0.93 -0.84)" style="fill:#fff"/><path d="M117.93,23.5c21.12,0,23.28,12.16,23.28,17.61a12.89,12.89,0,0,1-.21,2.68l-14.73.31a5.29,5.29,0,0,0,.21-1.75c0-3-1.65-8.24-9-8.24-6.9,0-11,3.91-11,15.76,0,10.09,3.71,15.55,11,15.55s9-5.15,9-8.24a5.05,5.05,0,0,0-.21-1.65l14.73.21a12.94,12.94,0,0,1,.21,2.68c0,5-2.16,17.61-23.28,17.61-17.71,0-26.57-9.58-26.57-26.16C91.36,35.55,99.39,23.5,117.93,23.5Z" transform="translate(-0.93 -0.84)" style="fill:#fff"/><path d="M147.49.84h14.83V45.23c7.11-4.84,15.56-12.77,20.5-20.7H199v1.75A103.47,103.47,0,0,1,181.27,46c2.68,3.19,16,25,18.75,27.29V75h-16c-2.17-1.85-11.54-18.54-13.81-21-1.95,1.54-6.07,4.32-7.93,5.46V75H147.49Z" transform="translate(-0.93 -0.84)" style="fill:#fff"/><path d="M204.14.84H219V29.27h.62c2.47-2.88,7.21-5.77,14.21-5.77,11,0,21.53,7,21.53,26.16,0,19-10.2,26.37-21.53,26.37-9,0-13.39-4-15.75-6.59h-.62L215.26,75H204.14ZM219,61.1a11.85,11.85,0,0,0,9.38,4.32c6.9,0,11.84-3.71,11.84-15.76s-5.25-15.55-11.84-15.55A13.07,13.07,0,0,0,219,38.54Z" transform="translate(-0.93 -0.84)" style="fill:#fff"/><path d="M285.41,23.5C303.12,23.5,312,33.9,312,49.87S303.12,76,285.41,76c-17.92,0-26.58-10.3-26.58-26.16S267.49,23.5,285.41,23.5Zm11.43,26.37c0-11.74-4.53-15.76-11.43-15.76-7.11,0-11.54,4-11.54,15.76,0,11.53,4.43,15.55,11.54,15.55C292.31,65.42,296.84,61.4,296.84,49.87Z" transform="translate(-0.93 -0.84)" style="fill:#fff"/><path d="M312.29,73.56l18-24L312.7,26.08V24.53h15.76l6.18,9.07a61.37,61.37,0,0,1,4.84,8.23h.72a71,71,0,0,1,4.95-8.13l6.28-9.17h15.76v1.55L349.37,49.15,367.5,73.56V75H351.74l-7-10.4a78.28,78.28,0,0,1-4.54-7.73h-.72a75.3,75.3,0,0,1-4.63,7.93L328.05,75H312.29Z" transform="translate(-0.93 -0.84)" style="fill:#fff"/><path d="M371.83,59.14h17.09V75H371.83Z" transform="translate(-0.93 -0.84)" style="fill:#fff"/><path d="M408.49,58a10.9,10.9,0,0,0-.1,1.64c0,2.68,1.54,6.18,10.4,6.18,5.77,0,8.65-1.95,8.65-4.94s-3.19-4.12-7.31-5l-7.31-1.64c-11.74-2.68-16.89-6.7-16.89-15.45,0-9.07,7.82-15.25,22.86-15.25,18.85,0,21.94,9.07,22,14.73a12.22,12.22,0,0,1-.2,2.58l-12.88.2a11,11,0,0,0,.1-1.65c0-2.37-1.75-5.56-9.47-5.56-5.77,0-8.45,1.75-8.45,4.74,0,3.91,3.92,4.53,8,5.36l7.93,1.64C438,48,442,52.75,442,60.68,442,69,434.65,76,418.79,76,398.5,76,395,66.14,395,60.27a10.77,10.77,0,0,1,.2-2Z" transform="translate(-0.93 -0.84)" style="fill:#fff"/><path d="M447.32,43.07a23.12,23.12,0,0,1-.31-3.71c0-9.68,7.32-15.86,23.28-15.86,17.92,0,22.76,8.86,22.76,18.33v20.5c0,2.06.83,2.88,2.27,2.88a7.43,7.43,0,0,0,2.57-.41l.62,9.89A29.62,29.62,0,0,1,490.07,76c-7.52,0-9.17-4.22-9.38-8h-.62c-1.75,2.06-7.93,8-18.84,8-9.89,0-16.38-4.43-16.38-13.6,0-10.6,8.44-16.78,33.68-17.3v-4c0-4.42-2.78-7.51-9-7.51s-9.17,1.95-9.17,6.28a20.65,20.65,0,0,0,.21,2.37Zm18.75,22.76a17.17,17.17,0,0,0,12.46-5.56V52.86c-15.14.3-19.36,3.39-19.36,7.72C459.17,64.29,461.64,65.83,466.07,65.83Z" transform="translate(-0.93 -0.84)" style="fill:#fff"/><path d="M502.32,43.07a23.12,23.12,0,0,1-.31-3.71c0-9.68,7.32-15.86,23.28-15.86,17.92,0,22.76,8.86,22.76,18.33v20.5c0,2.06.83,2.88,2.27,2.88a7.43,7.43,0,0,0,2.57-.41l.62,9.89A29.62,29.62,0,0,1,545.07,76c-7.52,0-9.17-4.22-9.38-8h-.61c-1.75,2.06-7.93,8-18.85,8-9.89,0-16.38-4.43-16.38-13.6,0-10.6,8.45-16.78,33.68-17.3v-4c0-4.42-2.78-7.51-9-7.51s-9.17,1.95-9.17,6.28a23.18,23.18,0,0,0,.21,2.37Zm18.75,22.76a17.16,17.16,0,0,0,12.46-5.56V52.86c-15.14.3-19.36,3.39-19.36,7.72C514.17,64.29,516.64,65.83,521.07,65.83Z" transform="translate(-0.93 -0.84)" style="fill:#fff"/><path d="M573.19,75H558.25V24.53h10.92l1.85,7h.72c2.37-3.61,6.18-8,14-8,10.3,0,13.6,7.42,13.6,15.66a33.1,33.1,0,0,1-.93,6.9l-12.77-.72a22.3,22.3,0,0,0,.41-4.23c0-4.42-2.06-6.79-5.25-6.79-3.92,0-6.59,3.4-7.62,6.28Z" transform="translate(-0.93 -0.84)" style="fill:#fff"/><path d="M604.5.84h14.93V75H604.5Z" transform="translate(-0.93 -0.84)" style="fill:#fff"/><path d="M628.19,43.07a22,22,0,0,1-.31-3.71c0-9.68,7.31-15.86,23.28-15.86,17.92,0,22.76,8.86,22.76,18.33v20.5c0,2.06.82,2.88,2.26,2.88a7.49,7.49,0,0,0,2.58-.41l.62,9.89A29.69,29.69,0,0,1,670.93,76c-7.52,0-9.17-4.22-9.37-8h-.62c-1.75,2.06-7.93,8-18.85,8-9.89,0-16.38-4.43-16.38-13.6,0-10.6,8.45-16.78,33.68-17.3v-4c0-4.42-2.78-7.51-9-7.51s-9.16,1.95-9.16,6.28a22.91,22.91,0,0,0,.2,2.37Zm18.74,22.76a17.16,17.16,0,0,0,12.46-5.56V52.86c-15.14.3-19.36,3.39-19.36,7.72C640,64.29,642.5,65.83,646.93,65.83Z" transform="translate(-0.93 -0.84)" style="fill:#fff"/><path d="M684.12,24.53H695L696.89,32h.72a18.38,18.38,0,0,1,15.86-8.45c11.12,0,18.74,5.67,18.74,20.29V75H717.38V45c0-8.45-3.09-10.92-8.44-10.92a12.16,12.16,0,0,0-10,5.56V75H684.12Z" transform="translate(-0.93 -0.84)" style="fill:#fff"/><path d="M789.48,75H778.26l-2.06-5.56h-.62C773.21,72,768.68,76,759.82,76c-11.33,0-21.53-7.42-21.53-26.37,0-19.15,10.51-26.16,21.53-26.16,7,0,11.74,2.89,14.21,5.77h.62V.84h14.83ZM774.65,38.54a13.29,13.29,0,0,0-9.48-4.43c-6.48,0-11.74,3.4-11.74,15.55s5,15.76,11.74,15.76a11.9,11.9,0,0,0,9.48-4.32Z" transform="translate(-0.93 -0.84)" style="fill:#fff"/></svg>